<?xml version="1.0" encoding="UTF-8" standalone="no"?>
<!-- Created with Inkscape (http://www.inkscape.org/) -->
<svg
   xmlns:a="http://ns.adobe.com/AdobeSVGViewerExtensions/3.0/"
   xmlns:svg="http://www.w3.org/2000/svg"
   xmlns="http://www.w3.org/2000/svg"
   version="1.0"
   width="650"
   height="296.32263"
   viewBox="0 0 418.969 190"
   id="svg5620"
   xml:space="preserve"><defs
   id="defs5718" />
	
		<g
   transform="matrix(0.966157,0,0,0.966157,6.278748,4.292451)"
   id="plane">
			<ellipse
   cx="71.5"
   cy="101.5"
   rx="28.5"
   ry="12.5"
   style="fill:#33c;stroke:black"
   id="ellipse5625" /> 
			<path
   d="M 330.5,141.039 C 330.5,141.039 0.5,150.386 0.5,116.693 C 0.5,83 330.5,92.346 330.5,92.346 L 330.5,141.039 z "
   style="fill:#0c9;stroke:black"
   id="path5627" />
			
				<ellipse
   cx="195.371"
   cy="124.348"
   rx="69.761002"
   ry="3.506"
   transform="matrix(0.9922,0.125,-0.125,0.9922,17.0824,-23.4539)"
   style="fill:green;stroke:black"
   id="ellipse5629" /> 
			<polygon
   points="341,43 299.5,43 287.5,96 329,96 341,43 "
   style="fill:#0c9;stroke:black"
   id="polygon5631" />
			
				<ellipse
   cx="330.07501"
   cy="44.436001"
   rx="43.452999"
   ry="2.8499999"
   transform="matrix(0.995,-0.1003,0.1003,0.995,-2.7925,33.3333)"
   style="fill:#099;stroke:black"
   id="ellipse5633" /> 
			<g
   id="g5635">
				<line
   a:adobe-knockout="false"
   x1="155.979"
   y1="111.44"
   x2="155.979"
   y2="180.5"
   id="line5637"
   style="fill:none;stroke:red" />
				<polygon
   points="152.275,177.691 155.979,179.264 159.683,177.691 155.979,186.469 152.275,177.691 "
   style="fill:red"
   id="polygon5639" />
			</g>
			<g
   id="g5641">
				<line
   a:adobe-knockout="false"
   x1="155.979"
   y1="6"
   x2="155.979"
   y2="110.409"
   id="line5643"
   style="fill:none;stroke:black" />
				<polygon
   points="159.682,8.809 155.979,7.236 152.274,8.809 155.979,0.031 159.682,8.809 "
   id="polygon5645" />
			</g>
			<g
   id="g5647">
				<line
   a:adobe-knockout="false"
   x1="413"
   y1="110.913"
   x2="156.5"
   y2="110.913"
   id="line5649"
   style="fill:none;stroke:black" />
				<polygon
   points="410.191,114.616 411.764,110.913 410.191,107.208 418.969,110.913 410.191,114.616 "
   id="polygon5651" />
			</g>
			<circle
   cx="155.979"
   cy="110.912"
   r="3.997"
   style="fill:red;stroke:black"
   id="circle5653" /> 
			<line
   x1="311"
   y1="42.868999"
   x2="311"
   y2="190"
   id="line5655"
   style="fill:none;stroke:black;stroke-dasharray:4, 3, 1, 3" />
			<g
   id="g5657">
				<line
   a:adobe-knockout="false"
   x1="311"
   y1="0"
   x2="311"
   y2="38.298"
   id="line5659"
   style="fill:none;stroke:red" />
				<polygon
   points="307.297,33.755 311,35.328 314.704,33.755 311,42.533 307.297,33.755 "
   style="fill:red"
   id="polygon5661" />
			</g>
			<g
   id="g5663">
				<line
   a:adobe-knockout="false"
   x1="184.896"
   y1="172"
   x2="307.5"
   y2="172"
   id="line5665"
   style="fill:none;stroke:black" />
				<polygon
   points="301.691,175.703 303.264,172 301.691,168.296 310.469,172 301.691,175.703 "
   id="polygon5667" />
				<polygon
   points="188.704,168.297 187.131,172 188.704,175.704 179.926,172 188.704,168.297 "
   id="polygon5669" />
			</g>
			<g
   id="g5671">
				<line
   a:adobe-knockout="false"
   x1="160"
   y1="172"
   x2="173.522"
   y2="172"
   id="line5673"
   style="fill:none;stroke:black" />
				<polygon
   points="170.191,175.703 171.764,172 170.191,168.296 178.969,172 170.191,175.703 "
   id="polygon5675" />
				<polygon
   points="165.261,168.297 163.688,172 165.261,175.704 156.483,172 165.261,168.297 "
   id="polygon5677" />
			</g>
			<text
   transform="translate(141.3838,20.8896)"
   id="text5679"><tspan
     x="0"
     y="0"
     style="font-size:17px;font-family:ArialMT"
     id="tspan5681">Z</tspan></text>


			<text
   transform="translate(123.8838,162.3896)"
   id="text5683"><tspan
     x="0"
     y="0"
     style="font-size:17px;font-family:ArialMT"
     id="tspan5685">mg</tspan></text>


			<text
   transform="translate(163.3838,166.8896)"
   id="text5687"><tspan
     x="0"
     y="0"
     style="font-size:17px;font-family:ArialMT"
     id="tspan5689">a</tspan></text>


			<text
   transform="translate(233.8838,166.8896)"
   id="text5691"><tspan
     x="0"
     y="0"
     style="font-size:17px;font-family:ArialMT"
     id="tspan5693">b</tspan></text>


			<text
   transform="translate(190.3838,61.3896)"
   id="text5695"><tspan
     x="0"
     y="0"
     style="font-size:17px;font-family:ArialMT"
     id="tspan5697">Pz</tspan></text>


			<text
   transform="translate(391.3838,127.3896)"
   id="text5699"><tspan
     x="0"
     y="0"
     style="font-size:17px;font-family:ArialMT"
     id="tspan5701">X</tspan></text>


			<text
   transform="translate(276.3838,24.8896)"
   id="text5703"><tspan
     x="0"
     y="0"
     style="font-size:17px;font-family:ArialMT"
     id="tspan5705">P</tspan></text>


			<text
   transform="translate(285.8848,26.7969)"
   id="text5707"><tspan
     x="0"
     y="0"
     style="font-size:10px;font-family:ArialMT"
     id="tspan5709">zh</tspan></text>


			<polygon
   points="183.203,39.809 179.5,38.236 175.796,39.809 179.5,31.031 183.203,39.809 "
   style="fill:red"
   id="polygon5711" />
			<line
   x1="179.5"
   y1="37"
   x2="179.5"
   y2="119.891"
   id="line5713"
   style="fill:none;stroke:red" />
			<line
   x1="179.5"
   y1="119.891"
   x2="179.5"
   y2="186.5"
   id="line5715"
   style="fill:none;stroke:black" />
		</g>
	</svg>